<?xml version="1.0" encoding="iso-8859-1"?>
<!-- Generator: Adobe Illustrator 18.0.0, SVG Export Plug-In . SVG Version: 6.00 Build 0)  -->
<!DOCTYPE svg PUBLIC "-//W3C//DTD SVG 1.1//EN" "http://www.w3.org/Graphics/SVG/1.1/DTD/svg11.dtd">
<svg version="1.1" id="Capa_1" xmlns="http://www.w3.org/2000/svg" xmlns:xlink="http://www.w3.org/1999/xlink" x="0px" y="0px"
	 viewBox="0 0 512 512" style="enable-background:new 0 0 512 512;" xml:space="preserve">
<path d="M480,175.999h-65.281L328.297,75.17c-11.516-13.406-31.734-14.969-45.125-3.469c-13.422,11.5-14.969,31.704-3.469,45.126
	l50.719,59.173H181.578l50.719-59.173c11.5-13.422,9.953-33.625-3.469-45.125c-13.391-11.484-33.609-9.921-45.125,3.469
	L97.281,175.999H32c-17.672,0-32,14.328-32,32s14.328,32,32,32h0.352c0,1-0.281,1.741-0.133,2.624l27.547,165.266
	c3.859,23.234,23.766,40.11,47.344,40.11h297.781c23.578,0,43.484-16.876,47.344-40.11l27.547-165.265
	c0.148-0.883-0.133-1.624-0.133-2.624H480c17.672,0,32-14.328,32-32S497.672,175.999,480,175.999z M176,367.997
	c0,8.844-7.156,16-16,16c-8.844,0-16-7.156-16-16v-80c0-8.844,7.156-16,16-16c8.844,0,16,7.156,16,16V367.997z M240,367.997
	c0,8.844-7.156,16-16,16c-8.844,0-16-7.156-16-16v-80c0-8.844,7.156-16,16-16c8.844,0,16,7.156,16,16V367.997z M304,367.997
	c0,8.844-7.156,16-16,16c-8.844,0-16-7.156-16-16v-80c0-8.844,7.156-16,16-16c8.844,0,16,7.156,16,16V367.997z M368,367.997
	c0,8.844-7.156,16-16,16c-8.844,0-16-7.156-16-16v-80c0-8.844,7.156-16,16-16c8.844,0,16,7.156,16,16V367.997z"/>
<g>
</g>
<g>
</g>
<g>
</g>
<g>
</g>
<g>
</g>
<g>
</g>
<g>
</g>
<g>
</g>
<g>
</g>
<g>
</g>
<g>
</g>
<g>
</g>
<g>
</g>
<g>
</g>
<g>
</g>
</svg>
