<svg width="16" height="14" viewBox="0 0 16 14" fill="none" xmlns="http://www.w3.org/2000/svg">
<path fill-rule="evenodd" clip-rule="evenodd" d="M11.6192 0C12.6622 0 13.6656 0.412222 14.4037 1.15189C15.1426 1.89 15.5556 2.88556 15.5556 3.92778V10.0722C15.5556 12.2422 13.79 14 11.6192 14H3.93556C1.76478 14 0 12.2422 0 10.0722V3.92778C0 1.75778 1.757 0 3.93556 0H11.6192ZM12.8567 5.08654L12.9189 5.02432C13.1048 4.79877 13.1048 4.4721 12.9104 4.24654C12.8022 4.13065 12.6537 4.05988 12.4989 4.04432C12.3356 4.03576 12.18 4.09099 12.0626 4.19988L8.55558 6.99988C8.10447 7.37399 7.45814 7.37399 7.00003 6.99988L3.50003 4.19988C3.25814 4.02099 2.92369 4.04432 2.72225 4.25432C2.51225 4.46432 2.48892 4.79877 2.66703 5.0321L2.76892 5.13321L6.3078 7.89432C6.74336 8.23654 7.27147 8.42321 7.82447 8.42321C8.37592 8.42321 8.91336 8.23654 9.34814 7.89432L12.8567 5.08654Z" fill="#0E2A58"/>
</svg>
