<svg width="17" height="20" viewBox="0 0 17 20" fill="none" xmlns="http://www.w3.org/2000/svg">
<path fill-rule="evenodd" clip-rule="evenodd" d="M8.53 1.99468e-05C10.79 0.0100202 12.95 0.910022 14.53 2.49002C16.12 4.08002 17.01 6.23002 17 8.46002V8.51002C16.94 11.54 15.24 14.33 13.12 16.51C11.92 17.74 10.59 18.83 9.14 19.75C8.75 20.08 8.18 20.08 7.79 19.75C5.64 18.35 3.74 16.59 2.2 14.54C0.85 12.76 0.08 10.62 0 8.39002C0.02 3.74002 3.84 -0.00997837 8.53 1.99468e-05ZM8.53003 11.2602C9.24003 11.2602 9.92003 10.9902 10.42 10.5002C10.94 9.99018 11.231 9.31118 11.231 8.60017C11.231 7.12018 10.02 5.93018 8.53003 5.93018C7.04003 5.93018 5.84003 7.12018 5.84003 8.60017C5.84003 10.0612 7.02003 11.2402 8.50003 11.2602H8.53003Z" fill="#0E2A58"/>
</svg>
