<svg width="18" height="18" viewBox="0 0 18 18" fill="none" xmlns="http://www.w3.org/2000/svg">
<path fill-rule="evenodd" clip-rule="evenodd" d="M9.00084 0C6.55657 0 6.24982 0.0106875 5.28981 0.054375C4.33167 0.09825 3.67766 0.249938 3.10541 0.4725C2.51346 0.702375 2.01133 1.00988 1.51108 1.51031C1.01045 2.01056 0.702945 2.51269 0.472317 3.10444C0.24919 3.67688 0.0973135 4.33106 0.0541881 5.28881C0.0112501 6.24881 0 6.55575 0 9C0 11.4443 0.0108751 11.7501 0.0543756 12.7101C0.0984385 13.6682 0.250128 14.3222 0.472505 14.8944C0.70257 15.4864 1.01007 15.9885 1.51052 16.4888C2.01058 16.9894 2.51271 17.2976 3.10428 17.5275C3.67691 17.7501 4.33111 17.9018 5.28905 17.9456C6.24906 17.9893 6.55563 18 8.99972 18C11.4442 18 11.75 17.9893 12.71 17.9456C13.6681 17.9018 14.3229 17.7501 14.8955 17.5275C15.4873 17.2976 15.9887 16.9894 16.4887 16.4888C16.9894 15.9885 17.2969 15.4864 17.5275 14.8946C17.7487 14.3222 17.9006 13.668 17.9456 12.7103C17.9888 11.7503 18 11.4443 18 9C18 6.55575 17.9888 6.249 17.9456 5.289C17.9006 4.33087 17.7487 3.67688 17.5275 3.10463C17.2969 2.51269 16.9894 2.01056 16.4887 1.51031C15.9881 1.00969 15.4875 0.702188 14.895 0.4725C14.3212 0.249938 13.6668 0.09825 12.7087 0.054375C11.7487 0.0106875 11.4431 0 8.99803 0H9.00084ZM8.19342 1.62185C8.43305 1.62147 8.70043 1.62185 9.0008 1.62185C11.4038 1.62185 11.6886 1.63047 12.6376 1.6736C13.5151 1.71372 13.9914 1.86035 14.3086 1.98354C14.7286 2.14666 15.0281 2.34166 15.3429 2.65666C15.6579 2.97166 15.8529 3.27166 16.0164 3.69166C16.1396 4.00854 16.2864 4.48479 16.3263 5.36229C16.3694 6.31104 16.3788 6.59604 16.3788 8.99791C16.3788 11.3998 16.3694 11.6848 16.3263 12.6335C16.2862 13.511 16.1396 13.9873 16.0164 14.3042C15.8533 14.7242 15.6579 15.0232 15.3429 15.338C15.0279 15.653 14.7288 15.848 14.3086 16.0112C13.9917 16.1349 13.5151 16.2812 12.6376 16.3213C11.6888 16.3644 11.4038 16.3738 9.0008 16.3738C6.59759 16.3738 6.31278 16.3644 5.36402 16.3213C4.48651 16.2808 4.01025 16.1342 3.69281 16.011C3.27281 15.8479 2.97281 15.6529 2.6578 15.3379C2.3428 15.0229 2.1478 14.7236 1.98429 14.3034C1.86111 13.9865 1.71429 13.5103 1.67435 12.6328C1.63123 11.684 1.6226 11.399 1.6226 8.99566C1.6226 6.59229 1.63123 6.30879 1.67435 5.36004C1.71448 4.48254 1.86111 4.00629 1.98429 3.68904C2.14742 3.26904 2.3428 2.96904 2.6578 2.65404C2.97281 2.33904 3.27281 2.14404 3.69281 1.98054C4.01007 1.85679 4.48651 1.71054 5.36402 1.67022C6.19428 1.63272 6.51603 1.62147 8.19342 1.6196V1.62185ZM13.805 3.11623C13.2087 3.11623 12.725 3.59942 12.725 4.19585C12.725 4.7921 13.2087 5.27585 13.805 5.27585C14.4012 5.27585 14.885 4.7921 14.885 4.19585C14.885 3.5996 14.4012 3.11623 13.805 3.11623ZM9.00086 4.3781C6.4484 4.3781 4.37894 6.44754 4.37894 8.99998C4.37894 11.5524 6.4484 13.6209 9.00086 13.6209C11.5533 13.6209 13.622 11.5524 13.622 8.99998C13.622 6.44754 11.5533 4.3781 9.00086 4.3781ZM9.00082 5.99998C10.6576 5.99998 12.0009 7.34304 12.0009 8.99998C12.0009 10.6567 10.6576 12 9.00082 12C7.34387 12 6.00079 10.6567 6.00079 8.99998C6.00079 7.34304 7.34387 5.99998 9.00082 5.99998Z" fill="white"/>
</svg>
