<svg width="14" height="18" viewBox="0 0 14 18" fill="none" xmlns="http://www.w3.org/2000/svg">
<path fill-rule="evenodd" clip-rule="evenodd" d="M0.00845931 7.60795C0.00845931 7.06664 0.015909 6.52532 0.0233933 5.9815C0.0271877 5.70579 0.0309909 5.42944 0.0338368 5.15211C0.0338368 2.17247 2.16556 0 5.10936 0H8.89063C11.8344 0 13.9662 2.17247 13.9662 5.15211C13.9915 6.34568 14 7.53926 14 8.74141C14 9.94357 13.9915 11.1543 13.9662 12.3479C13.9662 15.3275 11.8344 17.5 8.89063 17.5H5.10936C2.16556 17.5 0.0338368 15.3275 0.0338368 12.3393C0.0169184 11.2144 0 10.0638 0 8.89598L0.00845931 7.60795ZM8.27997 15.435V15.575C8.27997 16.1644 7.71677 16.625 6.99997 16.625C6.30024 16.625 5.71997 16.1644 5.71997 15.575V15.435C5.71997 14.861 6.30024 14.385 6.99997 14.385C7.71677 14.385 8.27997 14.861 8.27997 15.435ZM2.01671 5.63798C2.01136 5.99146 2.00604 6.34331 2.00604 6.69517L2 7.53238C2 8.29146 2.01208 9.03938 2.02417 9.77055C2.02417 11.7129 3.54683 13.125 5.64955 13.125H8.35045C10.4532 13.125 11.9758 11.7129 11.9758 9.77613C11.994 9.00031 12 8.21332 12 7.43192C12 6.65052 11.994 5.87469 11.9758 5.09887C11.9758 3.16211 10.4532 1.75 8.35045 1.75H5.64955C3.54683 1.75 2.02417 3.16211 2.02417 5.09887C2.02214 5.27913 2.01942 5.45877 2.01671 5.63798Z" fill="#0E2A58"/>
</svg>
