<svg width="15" height="14" viewBox="0 0 15 14" fill="none" xmlns="http://www.w3.org/2000/svg">
<path fill-rule="evenodd" clip-rule="evenodd" d="M7.28336 3.72422L7.31587 4.32976L6.77395 4.25561C4.80138 3.97138 3.07808 3.00746 1.61491 1.38857L0.899581 0.5853L0.71533 1.17848C0.32515 2.50078 0.574431 3.89723 1.38731 4.83643C1.82084 5.35547 1.72329 5.42962 0.975449 5.12067C0.71533 5.0218 0.487725 4.94766 0.466048 4.98473C0.39018 5.07124 0.6503 6.19581 0.856228 6.64069C1.13802 7.25859 1.71246 7.86413 2.34108 8.22251L2.87216 8.50674L2.24353 8.5191C1.63659 8.5191 1.61491 8.53146 1.67994 8.79098C1.89671 9.59424 2.75294 10.4469 3.70671 10.8177L4.37868 11.0772L3.79341 11.4727C2.92635 12.0411 1.90755 12.3624 0.888743 12.3871C0.401018 12.3995 0 12.4489 0 12.486C0 12.6096 1.32228 13.3016 2.0918 13.5735C4.40036 14.3768 7.14246 14.0307 9.20174 12.659C10.6649 11.6827 12.1281 9.74254 12.8109 7.86413C13.1794 6.86314 13.5479 5.03416 13.5479 4.15675C13.5479 3.58828 13.5804 3.51413 14.1874 2.83445C14.545 2.43899 14.881 2.00646 14.9461 1.88288C15.0544 1.64808 15.0436 1.64808 14.4908 1.85817C13.5696 2.22891 13.4395 2.17948 13.8947 1.62337C14.2307 1.22791 14.6317 0.511153 14.6317 0.301067C14.6317 0.263994 14.4692 0.325783 14.2849 0.437005C14.0898 0.560584 13.6563 0.745954 13.3311 0.857175L12.7459 1.06726L12.2148 0.659448C11.9222 0.437005 11.5103 0.189846 11.2935 0.115698C10.7408 -0.0573131 9.89539 -0.0325972 9.39683 0.16513C8.04204 0.721238 7.18581 2.15476 7.28336 3.72422Z" fill="white"/>
</svg>
