<svg width="18" height="14" viewBox="0 0 18 14" fill="none" xmlns="http://www.w3.org/2000/svg">
<path fill-rule="evenodd" clip-rule="evenodd" d="M16.0324 0.417968C16.8069 0.647952 17.4168 1.3256 17.6238 2.18615C18 3.74579 18 7 18 7C18 7 18 10.2541 17.6238 11.8139C17.4168 12.6744 16.8069 13.352 16.0324 13.5821C14.6288 14 9 14 9 14C9 14 3.37122 14 1.96752 13.5821C1.19301 13.352 0.583057 12.6744 0.376057 11.8139C0 10.2541 0 7 0 7C0 7 0 3.74579 0.376057 2.18615C0.583057 1.3256 1.19301 0.647952 1.96752 0.417968C3.37122 0 9 0 9 0C9 0 14.6288 0 16.0324 0.417968ZM7.31252 4.2608V10.3478L11.8125 7.3044L7.31252 4.2608Z" fill="white"/>
</svg>
