<?xml version="1.0" encoding="iso-8859-1"?>
<!-- Uploaded to: SVG Repo, www.svgrepo.com, Generator: SVG Repo Mixer Tools -->
<svg version="1.1" id="Layer_1" xmlns="http://www.w3.org/2000/svg" xmlns:xlink="http://www.w3.org/1999/xlink" 
	 viewBox="0 0 297 297" xml:space="preserve">
<g>
	<g>
		<g>
			<g>
				<circle style="fill:#F86E51;" cx="148.5" cy="148.5" r="148.5"/>
			</g>
		</g>
	</g>
	<path style="fill:#D14D37;" d="M296.745,139.891L243.774,86.89L54.124,210.989l85.738,85.755c2.859,0.164,5.738,0.256,8.638,0.256
		c82.014,0,148.5-66.486,148.5-148.5C297,145.61,296.908,142.741,296.745,139.891z"/>
	<g>
		<path style="fill:#664D4C;" d="M96.75,88.75h-33V77.541c0-2.922,2.369-5.291,5.292-5.291h22.417c2.922,0,5.291,2.369,5.291,5.291
			V88.75z"/>
	</g>
	<g>
		<path style="fill:#664D4C;" d="M117.25,88.5h-16V76.128c0-2.004,1.624-3.628,3.628-3.628h8.743c2.004,0,3.628,1.624,3.628,3.628
			L117.25,88.5L117.25,88.5z"/>
	</g>
	<g>
		<path style="fill:#32373B;" d="M63.333,214.5h170.333c7.64,0,13.833-6.193,13.833-13.833V96.334
			c0-7.64-6.193-13.834-13.833-13.834H63.333c-7.64,0-13.833,6.193-13.833,13.834v104.333C49.5,208.307,55.693,214.5,63.333,214.5z"
			/>
	</g>
	<g>
		<rect x="49.5" y="123.75" style="fill:#664D4C;" width="198" height="49.5"/>
	</g>
	<g>
		<circle style="fill:#847979;" cx="148.5" cy="148.5" r="49.5"/>
	</g>
	<g>
		<circle style="fill:#FFFFFF;" cx="148.5" cy="148.5" r="33"/>
	</g>
	<g>
		<circle style="fill:#BDC3C7;" cx="165" cy="132" r="7"/>
	</g>
	<g>
		<circle style="fill:#BDC3C7;" cx="155.5" cy="141.5" r="3"/>
	</g>
</g>
</svg>