<svg width="22" height="21" viewBox="0 0 22 21" fill="none" xmlns="http://www.w3.org/2000/svg">
<path d="M21.1319 14.9968H6.52815L7.2614 13.4398L19.4447 13.4168C19.8566 13.4168 20.2098 13.11 20.2834 12.6856L21.9706 2.83967C22.0147 2.58144 21.9485 2.31554 21.7866 2.11356C21.7067 2.01416 21.6069 1.93409 21.4942 1.8789C21.3816 1.82372 21.2588 1.79474 21.1343 1.79398L5.63549 1.74028L5.50307 1.09088C5.41969 0.676692 5.06164 0.375 4.65455 0.375H0.865678C0.636086 0.375 0.415897 0.470087 0.253551 0.639342C0.0912051 0.808597 0 1.03816 0 1.27752C0 1.51688 0.0912051 1.74644 0.253551 1.9157C0.415897 2.08495 0.636086 2.18004 0.865678 2.18004H3.95318L4.53194 5.04867L5.95675 12.2407L4.12239 15.3624C4.02713 15.4965 3.96976 15.6557 3.95675 15.8219C3.94375 15.9882 3.97565 16.155 4.04882 16.3033C4.19597 16.6076 4.4927 16.7993 4.82131 16.7993H6.36139C6.03306 17.254 5.85572 17.8077 5.8562 18.3768C5.8562 19.8239 6.98428 21 8.37231 21C9.76034 21 10.8884 19.8239 10.8884 18.3768C10.8884 17.8067 10.7069 17.2519 10.3832 16.7993H14.334C14.0056 17.254 13.8283 17.8077 13.8288 18.3768C13.8288 19.8239 14.9569 21 16.3449 21C17.7329 21 18.861 19.8239 18.861 18.3768C18.861 17.8067 18.6795 17.2519 18.3558 16.7993H21.1343C21.6101 16.7993 22 16.3954 22 15.8968C21.9986 15.6577 21.9065 15.4289 21.7439 15.2603C21.5812 15.0917 21.3612 14.997 21.1319 14.9968V14.9968ZM5.99599 3.51976L20.1166 3.56833L18.7335 11.6424L7.64151 11.6629L5.99599 3.51976ZM8.37231 19.1847C7.9456 19.1847 7.59737 18.8217 7.59737 18.3768C7.59737 17.9319 7.9456 17.5689 8.37231 17.5689C8.79902 17.5689 9.14725 17.9319 9.14725 18.3768C9.14725 18.5911 9.06561 18.7966 8.92028 18.9481C8.77495 19.0996 8.57784 19.1847 8.37231 19.1847V19.1847ZM16.3449 19.1847C15.9182 19.1847 15.5699 18.8217 15.5699 18.3768C15.5699 17.9319 15.9182 17.5689 16.3449 17.5689C16.7716 17.5689 17.1198 17.9319 17.1198 18.3768C17.1198 18.5911 17.0382 18.7966 16.8929 18.9481C16.7475 19.0996 16.5504 19.1847 16.3449 19.1847V19.1847Z" fill="#151515"/>
</svg>
