<svg width="341" height="89" viewBox="0 0 341 89" fill="none" xmlns="http://www.w3.org/2000/svg">
<path d="M327.05 88.4C330.86 88.4 334.03 87.16 336.56 84.66C339.09 82.17 340.36 79.02 340.36 75.2C340.36 71.31 339.12 68.15 336.63 65.74C334.14 63.33 330.95 62.12 327.06 62.12C323.25 62.12 320.07 63.33 317.54 65.74C315.01 68.15 313.74 71.31 313.74 75.2C313.74 79.01 315.03 82.17 317.59 84.66C320.16 87.16 323.31 88.4 327.05 88.4ZM272.88 74.39C270.31 74.39 268.29 73.81 266.81 72.64C265.33 71.47 264.59 69.92 264.59 67.97C264.59 63.69 267.82 61.55 274.28 61.55H283.85V67.04C282.99 69.46 281.59 71.28 279.65 72.53C277.71 73.77 275.45 74.39 272.88 74.39ZM273.7 23.02C268.64 23.02 263.6 23.66 258.58 24.95C253.56 26.24 249.3 28.05 245.8 30.38L253.27 45.44C255.45 43.73 258.1 42.39 261.21 41.41C264.32 40.44 267.4 39.95 270.43 39.95C278.99 39.95 283.47 43.3 283.85 49.99H271.24C261.67 49.99 254.59 51.64 249.99 54.95C245.4 58.26 243.1 62.91 243.1 68.9C243.1 72.63 244.01 75.96 245.84 78.88C247.67 81.8 250.37 84.12 253.95 85.83C257.53 87.54 261.77 88.4 266.67 88.4C275.93 88.4 282.16 85.33 285.35 79.18V87.35H306.01V52.21C306.01 42.33 303.25 34.99 297.72 30.2C292.22 25.42 284.2 23.02 273.7 23.02ZM202.13 70.77C198.24 70.77 195.05 69.43 192.56 66.74C190.07 64.06 188.83 60.34 188.83 55.59C188.83 50.92 190.07 47.26 192.56 44.62C195.05 41.97 198.24 40.65 202.13 40.65C206.02 40.65 209.19 41.97 211.65 44.62C214.1 47.27 215.33 50.92 215.33 55.59C215.33 60.34 214.09 64.06 211.6 66.74C209.1 69.43 205.95 70.77 202.13 70.77ZM214.97 0.729996V29.57C210.84 25.21 205.01 23.03 197.46 23.03C191.7 23.03 186.45 24.35 181.7 27C176.95 29.65 173.2 33.44 170.44 38.38C167.67 43.32 166.29 49.06 166.29 55.6C166.29 62.14 167.67 67.9 170.44 72.88C173.2 77.86 176.96 81.69 181.7 84.38C186.44 87.07 191.7 88.41 197.46 88.41C205.71 88.41 211.89 85.96 216.02 81.05V87.35H237.15V0.720001L214.97 0.729996ZM133.6 23.02C129.55 23.02 125.82 23.7 122.39 25.06C118.96 26.42 116.01 28.39 113.52 30.95V24.06H92.39V87.34H114.57V56.75C114.57 51.77 115.72 48.04 118.01 45.54C120.31 43.05 123.36 41.8 127.18 41.8C134.11 41.8 137.57 46.12 137.57 54.76V87.33H159.75V51.14C159.75 41.72 157.36 34.68 152.57 30.01C147.79 25.36 141.46 23.02 133.6 23.02ZM70.44 5.63L47.79 58.87L25.61 5.63H0.630005L35.54 87.35H58.31L93.33 5.63H70.44Z" fill="#00665C"/>
</svg>
