<svg width="22" height="22" viewBox="0 0 22 22" fill="none" xmlns="http://www.w3.org/2000/svg">
<path d="M11 5.5C10.3201 5.5 9.65552 5.70161 9.09023 6.07932C8.52494 6.45704 8.08434 6.9939 7.82417 7.62203C7.56399 8.25015 7.49592 8.94131 7.62855 9.60812C7.76119 10.2749 8.08858 10.8874 8.56932 11.3682C9.05007 11.8489 9.66257 12.1763 10.3294 12.3089C10.9962 12.4416 11.6874 12.3735 12.3155 12.1133C12.9436 11.8532 13.4805 11.4126 13.8582 10.8473C14.2359 10.282 14.4375 9.61737 14.4375 8.9375C14.4375 8.02582 14.0753 7.15148 13.4307 6.50682C12.786 5.86216 11.9117 5.5 11 5.5ZM11 11C10.5921 11 10.1933 10.879 9.85414 10.6524C9.51496 10.4258 9.25061 10.1037 9.0945 9.72678C8.93839 9.34991 8.89755 8.93521 8.97713 8.53513C9.05671 8.13504 9.25315 7.76754 9.54159 7.47909C9.83004 7.19065 10.1975 6.99421 10.5976 6.91463C10.9977 6.83505 11.4124 6.87589 11.7893 7.032C12.1662 7.1881 12.4883 7.45246 12.7149 7.79164C12.9415 8.13081 13.0625 8.52958 13.0625 8.9375C13.062 9.48434 12.8445 10.0086 12.4578 10.3953C12.0711 10.782 11.5468 10.9995 11 11Z" fill="#151515"/>
<path d="M11 0C8.82441 0 6.69767 0.645139 4.88873 1.85383C3.07979 3.06253 1.66989 4.78049 0.83733 6.79048C0.00476611 8.80047 -0.213071 11.0122 0.211367 13.146C0.635804 15.2798 1.68345 17.2398 3.22183 18.7782C4.76021 20.3165 6.72022 21.3642 8.85401 21.7886C10.9878 22.2131 13.1995 21.9952 15.2095 21.1627C17.2195 20.3301 18.9375 18.9202 20.1462 17.1113C21.3549 15.3023 22 13.1756 22 11C21.9967 8.08364 20.8367 5.28768 18.7745 3.2255C16.7123 1.16332 13.9164 0.00332728 11 0V0ZM6.28572 19.1534V18.0714C6.28634 17.4465 6.53488 16.8473 6.9768 16.4054C7.41871 15.9634 8.0179 15.7149 8.64286 15.7143H13.3571C13.9821 15.7149 14.5813 15.9634 15.0232 16.4054C15.4651 16.8473 15.7137 17.4465 15.7143 18.0714V19.1534C14.2836 19.9887 12.6567 20.4289 11 20.4289C9.34331 20.4289 7.71637 19.9887 6.28572 19.1534V19.1534ZM17.2794 18.0133C17.2638 16.9827 16.8439 15.9995 16.1102 15.2755C15.3766 14.5516 14.3879 14.1448 13.3571 14.1429H8.64286C7.61215 14.1448 6.62345 14.5516 5.88979 15.2755C5.15613 15.9995 4.73623 16.9827 4.72058 18.0133C3.29573 16.741 2.29094 15.066 1.83923 13.2099C1.38753 11.3539 1.51023 9.40448 2.19108 7.61974C2.87193 5.83501 4.07882 4.29917 5.65194 3.21559C7.22506 2.13201 9.0902 1.55181 11.0004 1.55181C12.9106 1.55181 14.7757 2.13201 16.3489 3.21559C17.922 4.29917 19.1289 5.83501 19.8097 7.61974C20.4906 9.40448 20.6133 11.3539 20.1616 13.2099C19.7099 15.066 18.7051 16.741 17.2802 18.0133H17.2794Z" fill="#151515"/>
</svg>
