<svg width="512" height="450" viewBox="0 0 512 450" fill="none" xmlns="http://www.w3.org/2000/svg">
<path d="M150 405C150 429.812 170.187 450 195 450C219.812 450 240 429.812 240 405C240 380.188 219.812 360 195 360C170.187 360 150 380.188 150 405ZM195 390C203.269 390 210 396.73 210 405C210 413.27 203.269 420 195 420C186.73 420 180 413.27 180 405C180 396.73 186.73 390 195 390Z" fill="white"/>
<path d="M362 405C362 429.812 382.187 450 407 450C431.812 450 452 429.812 452 405C452 380.188 431.812 360 407 360C382.187 360 362 380.188 362 405ZM407 390C415.269 390 422 396.73 422 405C422 413.27 415.269 420 407 420C398.73 420 392 413.27 392 405C392 396.73 398.73 390 407 390Z" fill="white"/>
<path d="M164.961 300.004H164.984C165.004 300.004 165.023 300 165.043 300H437C443.695 300 449.582 295.559 451.422 289.121L511.422 79.1212C512.715 74.5939 511.809 69.7267 508.977 65.9689C506.141 62.2111 501.707 60.0001 497 60.0001H130.367L119.645 11.7462C118.117 4.88293 112.031 0.00012207 105 0.00012207H15C6.71484 0.00012207 0 6.71497 0 15.0001C0 23.2853 6.71484 30.0001 15 30.0001H92.9688C94.8672 38.5509 144.281 260.918 147.125 273.711C131.184 280.641 120 296.535 120 315C120 339.813 140.188 360 165 360H437C445.285 360 452 353.285 452 345C452 336.715 445.285 330 437 330H165C156.73 330 150 323.27 150 315C150 306.742 156.707 300.024 164.961 300.004ZM477.113 90.0001L425.684 270H177.031L137.031 90.0001H477.113Z" fill="white"/>
</svg>
