<svg width="459" height="130" viewBox="0 0 459 130" fill="none" xmlns="http://www.w3.org/2000/svg">
<path d="M89.5418 0.0479994C88.8698 9.168 88.5338 17.328 88.5338 24.528C88.5338 29.04 88.6778 32.688 88.9658 35.472H85.6538C83.3498 23.664 80.1818 15.36 76.1498 10.56C72.2138 5.75999 66.7898 3.35999 59.8778 3.35999H56.5658V85.584C56.5658 89.616 56.9498 92.544 57.7178 94.368C58.5818 96.192 60.0218 97.44 62.0378 98.112C64.1498 98.688 67.4618 99.024 71.9738 99.12V102C59.8778 101.712 50.7578 101.568 44.6138 101.568C38.5658 101.568 29.7818 101.712 18.2617 102V99.12C22.7738 99.024 26.0378 98.688 28.0538 98.112C30.1658 97.44 31.6058 96.192 32.3738 94.368C33.2378 92.544 33.6698 89.616 33.6698 85.584V3.35999H30.5018C25.8938 3.35999 21.9578 4.36799 18.6938 6.384C15.5258 8.4 12.7898 11.76 10.4858 16.464C8.18175 21.072 6.21375 27.408 4.58175 35.472H1.26975C1.55775 32.688 1.70175 29.04 1.70175 24.528C1.70175 17.328 1.36575 9.168 0.69375 0.0479994C9.42975 0.335996 24.2618 0.479994 45.1898 0.479994C66.1178 0.479994 80.9018 0.335996 89.5418 0.0479994ZM146.273 25.536C150.593 25.536 153.857 26.832 156.065 29.424C158.273 32.016 159.377 35.136 159.377 38.784C159.377 42.336 158.321 45.264 156.209 47.568C154.193 49.776 151.505 50.88 148.145 50.88C144.881 50.88 142.289 50.064 140.369 48.432C138.449 46.704 137.489 44.448 137.489 41.664C137.489 37.056 139.601 33.312 143.825 30.432C143.441 30.336 142.865 30.288 142.097 30.288C141.137 30.288 140.369 30.384 139.793 30.576C136.145 31.152 133.025 33.36 130.433 37.2C127.937 41.04 126.689 44.976 126.689 49.008V87.168C126.689 91.584 127.745 94.656 129.857 96.384C132.065 98.112 135.521 98.976 140.225 98.976V102C138.881 102 137.777 101.952 136.913 101.856C127.121 101.568 120.593 101.424 117.329 101.424C114.737 101.424 108.833 101.568 99.6173 101.856C98.8493 101.952 97.8893 102 96.7373 102V98.976C100.193 98.976 102.593 98.256 103.937 96.816C105.281 95.28 105.953 92.544 105.953 88.608V43.248C105.953 38.832 105.281 35.616 103.937 33.6C102.593 31.584 100.193 30.576 96.7373 30.576V27.552C99.8093 27.84 102.785 27.984 105.665 27.984C114.209 27.984 121.217 27.312 126.689 25.968V39.36C128.513 35.232 131.153 31.92 134.609 29.424C138.065 26.832 141.953 25.536 146.273 25.536ZM182.964 103.008C176.82 103.008 172.212 101.424 169.14 98.256C166.164 95.088 164.676 90.912 164.676 85.728C164.676 81.408 165.78 77.856 167.988 75.072C170.292 72.192 173.028 69.984 176.196 68.448C179.46 66.912 183.588 65.28 188.58 63.552C193.86 61.728 197.7 60.096 200.1 58.656C202.596 57.12 203.844 55.056 203.844 52.464V41.232C203.844 37.2 202.884 34.08 200.964 31.872C199.14 29.568 196.26 28.416 192.324 28.416C187.716 28.416 184.212 29.568 181.812 31.872C184.5 32.832 186.564 34.272 188.004 36.192C189.54 38.112 190.308 40.368 190.308 42.96C190.308 46.224 189.204 48.816 186.996 50.736C184.788 52.656 182.1 53.616 178.932 53.616C175.572 53.616 172.98 52.56 171.156 50.448C169.332 48.336 168.42 45.696 168.42 42.528C168.42 39.84 169.044 37.584 170.292 35.76C171.636 33.84 173.652 32.064 176.34 30.432C178.932 28.896 182.1 27.696 185.844 26.832C189.684 25.968 193.86 25.536 198.372 25.536C203.076 25.536 207.156 26.016 210.612 26.976C214.068 27.936 216.948 29.568 219.252 31.872C221.364 33.984 222.756 36.576 223.428 39.648C224.196 42.72 224.58 46.896 224.58 52.176V91.344C224.58 93.648 224.772 95.28 225.156 96.24C225.636 97.2 226.5 97.68 227.748 97.68C229.188 97.68 230.916 96.864 232.932 95.232L234.372 97.68C230.052 101.232 224.772 103.008 218.532 103.008C213.252 103.008 209.556 101.952 207.444 99.84C205.332 97.728 204.228 94.896 204.132 91.344C199.332 99.12 192.276 103.008 182.964 103.008ZM194.052 93.792C197.796 93.792 201.06 91.824 203.844 87.888V58.368C202.692 60.288 200.244 62.4 196.5 64.704C192.756 67.104 189.924 69.504 188.004 71.904C186.084 74.304 185.124 77.76 185.124 82.272C185.124 86.208 185.94 89.136 187.572 91.056C189.204 92.88 191.364 93.792 194.052 93.792ZM295.545 27.984C300.441 27.984 304.137 27.84 306.633 27.552V30.432C304.617 31.008 302.793 32.256 301.161 34.176C299.625 36 298.137 38.88 296.697 42.816L275.673 102.288C274.617 102.192 273.033 102.144 270.921 102.144C268.905 102.144 267.369 102.192 266.313 102.288L240.681 38.64C239.337 35.376 237.945 33.216 236.505 32.16C235.161 31.104 233.769 30.576 232.329 30.576V27.552C239.049 28.032 245.865 28.272 252.777 28.272C258.825 28.272 265.065 28.032 271.497 27.552V30.576C268.233 30.576 265.881 30.816 264.441 31.296C263.097 31.68 262.425 32.832 262.425 34.752C262.425 35.52 262.665 36.72 263.145 38.352L279.561 81.984L289.929 53.472C291.465 48.96 292.233 45.072 292.233 41.808C292.233 34.8 288.729 31.008 281.721 30.432V27.552C286.137 27.84 290.745 27.984 295.545 27.984ZM345.249 25.536C356.289 25.536 364.929 28.704 371.169 35.04C377.409 41.28 380.529 51.216 380.529 64.848C380.529 78.48 377.409 88.416 371.169 94.656C364.929 100.896 356.289 104.016 345.249 104.016C334.305 104.016 325.665 100.896 319.329 94.656C313.089 88.416 309.969 78.48 309.969 64.848C309.969 51.216 313.089 41.28 319.329 35.04C325.665 28.704 334.305 25.536 345.249 25.536ZM345.249 28.416C341.121 28.416 337.809 31.44 335.313 37.488C332.913 43.44 331.713 52.56 331.713 64.848C331.713 77.136 332.913 86.256 335.313 92.208C337.809 98.16 341.121 101.136 345.249 101.136C349.473 101.136 352.785 98.208 355.185 92.352C357.585 86.4 358.785 77.232 358.785 64.848C358.785 52.464 357.537 43.296 355.041 37.344C352.641 31.392 349.377 28.416 345.249 28.416ZM447.018 27.984C451.818 27.984 455.514 27.84 458.106 27.552V30.432C456.09 31.008 454.266 32.256 452.634 34.176C451.098 36 449.61 38.88 448.17 42.816L422.394 115.248C420.474 120.24 418.362 123.648 416.058 125.472C413.274 127.872 409.098 129.072 403.53 129.072C399.498 129.072 395.85 128.064 392.586 126.048C389.418 124.128 387.834 121.296 387.834 117.552C387.834 114.576 388.89 112.176 391.002 110.352C393.114 108.624 395.898 107.76 399.354 107.76C402.618 107.76 405.21 108.528 407.13 110.064C409.146 111.696 410.154 113.952 410.154 116.832C410.154 118.848 409.53 120.672 408.282 122.304C407.034 124.032 405.258 125.328 402.954 126.192C403.626 126.288 404.73 126.336 406.266 126.336C412.218 126.336 416.586 122.544 419.37 114.96L421.674 108.048L391.146 38.64C389.61 35.376 388.122 33.216 386.682 32.16C385.242 31.104 383.754 30.576 382.218 30.576V27.552C388.554 28.128 395.13 28.416 401.946 28.416C407.61 28.416 414.282 28.128 421.962 27.552V30.576C418.89 30.576 416.586 30.816 415.05 31.296C413.61 31.68 412.89 32.784 412.89 34.608C412.89 35.664 413.226 37.008 413.898 38.64L431.466 81.12L441.402 53.472C442.938 48.96 443.706 45.12 443.706 41.952C443.706 34.944 440.154 31.104 433.05 30.432V27.552C437.562 27.84 442.218 27.984 447.018 27.984Z" fill="#272727"/>
</svg>
