<?xml version="1.0" encoding="UTF-8" standalone="no"?>
<!-- Created with Inkscape (http://www.inkscape.org/) -->
<svg
   xmlns:dc="http://purl.org/dc/elements/1.1/"
   xmlns:cc="http://web.resource.org/cc/"
   xmlns:rdf="http://www.w3.org/1999/02/22-rdf-syntax-ns#"
   xmlns:svg="http://www.w3.org/2000/svg"
   xmlns="http://www.w3.org/2000/svg"
   xmlns:sodipodi="http://sodipodi.sourceforge.net/DTD/sodipodi-0.dtd"
   xmlns:inkscape="http://www.inkscape.org/namespaces/inkscape"
   width="114"
   height="75"
   id="svg2"
   inkscape:label="Pozadí"
   sodipodi:version="0.32"
   inkscape:version="0.45"
   version="1.0"
   sodipodi:docbase="C:\Users\petrk\Pictures"
   sodipodi:docname="quote-left-cs.svg"
   inkscape:output_extension="org.inkscape.output.svg.inkscape"
   sodipodi:modified="true">
  <defs
     id="defs3" />
  <sodipodi:namedview
     id="base"
     pagecolor="#ffffff"
     bordercolor="#666666"
     borderopacity="1.0"
     inkscape:pageopacity="0.0"
     inkscape:pageshadow="2"
     inkscape:zoom="2.8"
     inkscape:cx="46.269583"
     inkscape:cy="-5.3481361"
     inkscape:document-units="px"
     inkscape:current-layer="layer1"
     width="114px"
     height="75px"
     inkscape:window-width="1280"
     inkscape:window-height="1004"
     inkscape:window-x="1272"
     inkscape:window-y="-8" />
  <metadata
     id="metadata6">
    <rdf:RDF>
      <cc:Work
         rdf:about="">
        <dc:format>image/svg+xml</dc:format>
        <dc:type
           rdf:resource="http://purl.org/dc/dcmitype/StillImage" />
        <dc:title>Czech left quotation mark</dc:title>
        <dc:date>2007-08-27</dc:date>
        <dc:creator>
          <cc:Agent>
            <dc:title>Petr Kadlec &lt;http://cs.wikipedia.org/wiki/User:Mormegil&gt;</dc:title>
          </cc:Agent>
        </dc:creator>
        <cc:license
           rdf:resource="http://web.resource.org/cc/PublicDomain" />
      </cc:Work>
      <cc:License
         rdf:about="http://web.resource.org/cc/PublicDomain">
        <cc:permits
           rdf:resource="http://web.resource.org/cc/Reproduction" />
        <cc:permits
           rdf:resource="http://web.resource.org/cc/Distribution" />
        <cc:permits
           rdf:resource="http://web.resource.org/cc/DerivativeWorks" />
      </cc:License>
    </rdf:RDF>
  </metadata>
  <g
     inkscape:label="Vrstva 1"
     inkscape:groupmode="layer"
     id="layer1"
     transform="translate(-5.7109375,-1002.7372)">
    <path
       style="font-size:288px;font-style:normal;font-variant:normal;font-weight:normal;font-stretch:normal;text-align:start;line-height:125%;writing-mode:lr-tb;text-anchor:start;fill:#000;fill-opacity:1;stroke:none;stroke-width:1px;stroke-linecap:butt;stroke-linejoin:miter;stroke-opacity:1;font-family:Times New Roman"
       d="M 14.460938,1076.7372 L 14.460938,1070.8309 C 23.929662,1065.4871 30.140593,1060.6356 33.09375,1056.2762 C 36.046837,1051.9169 37.523398,1046.8778 37.523438,1041.1591 C 37.523398,1038.5341 37.054649,1036.5653 36.117188,1035.2528 C 35.085901,1033.9403 33.960902,1033.2841 32.742188,1033.2841 C 31.804654,1033.2841 30.304655,1033.6591 28.242188,1034.4091 C 26.17966,1035.1591 24.117162,1035.5341 22.054688,1035.5341 C 18.117168,1035.5341 14.742171,1034.1278 11.929688,1031.3153 C 9.1171767,1028.5028 7.7109281,1025.0809 7.7109375,1021.0497 C 7.7109281,1016.5497 9.5156138,1012.6122 13.125,1009.2372 C 16.734357,1005.8622 21.117165,1004.1747 26.273438,1004.1747 C 32.460903,1004.1747 38.06246,1006.8466 43.078125,1012.1903 C 48.0937,1017.5341 50.60151,1024.2841 50.601563,1032.4403 C 50.60151,1042.284 47.437451,1051.284 41.109375,1059.4403 C 34.781214,1067.5965 25.89841,1073.3621 14.460938,1076.7372 L 14.460938,1076.7372 z M 81.539063,1076.7372 L 81.539063,1070.8309 C 89.695221,1066.6121 95.578028,1062.1356 99.1875,1057.4012 C 102.79677,1052.6668 104.60146,1047.534 104.60156,1042.0028 C 104.60146,1038.7216 104.13271,1036.4247 103.19531,1035.1122 C 102.25771,1033.8934 101.22646,1033.2841 100.10156,1033.2841 C 98.882712,1033.2841 97.242089,1033.6591 95.179688,1034.4091 C 93.023343,1035.1591 91.148345,1035.5341 89.554688,1035.5341 C 85.71085,1035.5341 82.359291,1034.0809 79.5,1031.1747 C 76.640547,1028.2684 75.210861,1024.7997 75.210938,1020.7684 C 75.210861,1016.2684 76.945234,1012.3778 80.414063,1009.0966 C 83.882727,1005.8153 88.148348,1004.1747 93.210938,1004.1747 C 99.585836,1004.1747 105.30458,1006.9169 110.36719,1012.4012 C 115.42957,1017.8856 117.96082,1024.6122 117.96094,1032.5809 C 117.96082,1041.9559 114.84363,1050.6981 108.60938,1058.8075 C 102.3749,1066.9168 93.351467,1072.8934 81.539063,1076.7372 L 81.539063,1076.7372 z "
       id="text2159" />
  </g>
</svg>
