<?xml version="1.0" encoding="UTF-8" standalone="no"?>
<!-- Created with Inkscape (http://www.inkscape.org/) -->
<svg
   xmlns:dc="http://purl.org/dc/elements/1.1/"
   xmlns:cc="http://web.resource.org/cc/"
   xmlns:rdf="http://www.w3.org/1999/02/22-rdf-syntax-ns#"
   xmlns:svg="http://www.w3.org/2000/svg"
   xmlns="http://www.w3.org/2000/svg"
   xmlns:sodipodi="http://sodipodi.sourceforge.net/DTD/sodipodi-0.dtd"
   xmlns:inkscape="http://www.inkscape.org/namespaces/inkscape"
   width="112"
   height="76"
   id="svg2"
   inkscape:label="Pozadí"
   sodipodi:version="0.32"
   inkscape:version="0.45"
   version="1.0"
   sodipodi:docbase="C:\Users\petrk\Pictures"
   sodipodi:docname="quote-right-cs.svg"
   inkscape:output_extension="org.inkscape.output.svg.inkscape"
   sodipodi:modified="true">
  <defs
     id="defs3" />
  <sodipodi:namedview
     id="base"
     pagecolor="#ffffff"
     bordercolor="#666666"
     borderopacity="1.0"
     inkscape:pageopacity="0.0"
     inkscape:pageshadow="2"
     inkscape:zoom="2.8"
     inkscape:cx="46.269583"
     inkscape:cy="45.508946"
     inkscape:document-units="px"
     inkscape:current-layer="layer1"
     width="112px"
     height="76px"
     inkscape:window-width="1280"
     inkscape:window-height="1004"
     inkscape:window-x="1272"
     inkscape:window-y="-8" />
  <metadata
     id="metadata6">
    <rdf:RDF>
      <cc:Work
         rdf:about="">
        <dc:format>image/svg+xml</dc:format>
        <dc:type
           rdf:resource="http://purl.org/dc/dcmitype/StillImage" />
        <dc:title>Czech right quotation mark</dc:title>
        <dc:date>2007-08-27</dc:date>
        <dc:creator>
          <cc:Agent>
            <dc:title>Petr Kadlec &lt;http://cs.wikipedia.org/wiki/User:Mormegil&gt;</dc:title>
          </cc:Agent>
        </dc:creator>
        <cc:license
           rdf:resource="http://web.resource.org/cc/PublicDomain" />
      </cc:Work>
      <cc:License
         rdf:about="http://web.resource.org/cc/PublicDomain">
        <cc:permits
           rdf:resource="http://web.resource.org/cc/Reproduction" />
        <cc:permits
           rdf:resource="http://web.resource.org/cc/Distribution" />
        <cc:permits
           rdf:resource="http://web.resource.org/cc/DerivativeWorks" />
      </cc:License>
    </rdf:RDF>
  </metadata>
  <g
     inkscape:label="Vrstva 1"
     inkscape:groupmode="layer"
     id="layer1"
     transform="translate(-7.7109375,-837.25281)">
    <path
       style="font-size:288px;font-style:normal;font-variant:normal;font-weight:normal;font-stretch:normal;text-align:start;line-height:125%;writing-mode:lr-tb;text-anchor:start;fill:#000;fill-opacity:1;stroke:none;stroke-width:1px;stroke-linecap:butt;stroke-linejoin:miter;stroke-opacity:1;font-family:Times New Roman"
       d="M 45.132813,838.69031 L 45.132813,844.45593 C 36.882775,848.76862 30.976531,853.26861 27.414063,857.95593 C 23.851538,862.6436 22.07029,867.75297 22.070313,873.28406 C 22.07029,876.56546 22.539039,878.81546 23.476563,880.03406 C 24.320287,881.34671 25.351536,882.00296 26.570313,882.00281 C 27.789034,882.00296 29.429657,881.6514 31.492188,880.94812 C 33.554653,880.24515 35.429651,879.89359 37.117188,879.89343 C 40.960896,879.89359 44.312455,881.32327 47.171875,884.1825 C 50.031199,887.04202 51.460885,890.5342 51.460938,894.65906 C 51.460885,899.15919 49.726512,903.02638 46.257813,906.26062 C 42.789019,909.49512 38.476523,911.11231 33.320313,911.11218 C 27.039035,911.11231 21.367165,908.39356 16.304688,902.95593 C 11.242176,897.51857 8.7109281,890.81545 8.7109375,882.84656 C 8.7109281,873.47172 11.828112,864.72954 18.0625,856.62 C 24.29685,848.51081 33.320278,842.53425 45.132813,838.69031 L 45.132813,838.69031 z M 112.21094,839.11218 L 112.21094,844.45593 C 102.74208,849.89362 96.507715,854.76861 93.507813,859.08093 C 90.507721,863.3936 89.007723,868.4561 89.007813,874.26843 C 89.007723,876.89359 89.523347,878.86234 90.554688,880.17468 C 91.585845,881.48733 92.663969,882.14358 93.789063,882.14343 C 94.820217,882.14358 96.36709,881.76858 98.429688,881.01843 C 100.49209,880.26859 102.55458,879.89359 104.61719,879.89343 C 108.46083,879.89359 111.81239,881.2764 114.67188,884.04187 C 117.53113,886.80764 118.96082,890.20608 118.96094,894.23718 C 118.96082,898.83107 117.15613,902.81544 113.54688,906.19031 C 109.93739,909.56543 105.50771,911.25293 100.25781,911.25281 C 94.070218,911.25293 88.492098,908.58106 83.523438,903.23718 C 78.554608,897.89357 76.070236,891.23733 76.070313,883.26843 C 76.070236,873.42484 79.210858,864.44829 85.492188,856.33875 C 91.773345,848.22956 100.67959,842.48737 112.21094,839.11218 L 112.21094,839.11218 z "
       id="text2159" />
  </g>
</svg>
