<svg width="20" height="22" viewBox="0 0 14 16" fill="none" xmlns="http://www.w3.org/2000/svg">
<g clip-path="url(#clip0)">
<path d="M7.00351 4.40635C5.01601 4.40635 3.41289 6.00947 3.41289 7.99697C3.41289 9.98447 5.01601 11.5876 7.00351 11.5876C8.99101 11.5876 10.5941 9.98447 10.5941 7.99697C10.5941 6.00947 8.99101 4.40635 7.00351 4.40635ZM7.00351 10.3313C5.71914 10.3313 4.66914 9.28447 4.66914 7.99697C4.66914 6.70947 5.71601 5.6626 7.00351 5.6626C8.29101 5.6626 9.33789 6.70947 9.33789 7.99697C9.33789 9.28447 8.28789 10.3313 7.00351 10.3313ZM11.5785 4.25947C11.5785 4.7251 11.2035 5.09697 10.741 5.09697C10.2754 5.09697 9.90351 4.72197 9.90351 4.25947C9.90351 3.79697 10.2785 3.42197 10.741 3.42197C11.2035 3.42197 11.5785 3.79697 11.5785 4.25947ZM13.9566 5.10947C13.9035 3.9876 13.6473 2.99385 12.8254 2.1751C12.0066 1.35635 11.0129 1.1001 9.89101 1.04385C8.73476 0.978223 5.26914 0.978223 4.11289 1.04385C2.99414 1.09697 2.00039 1.35322 1.17852 2.17197C0.356641 2.99072 0.103516 3.98447 0.0472656 5.10635C-0.0183594 6.2626 -0.0183594 9.72822 0.0472656 10.8845C0.100391 12.0063 0.356641 13.0001 1.17852 13.8188C2.00039 14.6376 2.99101 14.8938 4.11289 14.9501C5.26914 15.0157 8.73476 15.0157 9.89101 14.9501C11.0129 14.897 12.0066 14.6407 12.8254 13.8188C13.6441 13.0001 13.9004 12.0063 13.9566 10.8845C14.0223 9.72822 14.0223 6.26572 13.9566 5.10947ZM12.4629 12.1251C12.2191 12.7376 11.7473 13.2095 11.1316 13.4563C10.2098 13.822 8.02226 13.7376 7.00351 13.7376C5.98476 13.7376 3.79414 13.8188 2.87539 13.4563C2.26289 13.2126 1.79102 12.7407 1.54414 12.1251C1.17852 11.2032 1.26289 9.01572 1.26289 7.99697C1.26289 6.97822 1.18164 4.7876 1.54414 3.86885C1.78789 3.25635 2.25976 2.78447 2.87539 2.5376C3.79726 2.17197 5.98476 2.25635 7.00351 2.25635C8.02226 2.25635 10.2129 2.1751 11.1316 2.5376C11.7441 2.78135 12.216 3.25322 12.4629 3.86885C12.8285 4.79072 12.7441 6.97822 12.7441 7.99697C12.7441 9.01572 12.8285 11.2063 12.4629 12.1251Z" fill="#151515"/>
</g>
<defs>
<clipPath id="clip0">
<rect width="14" height="16" fill="white"/>
</clipPath>
</defs>
</svg>
