<svg width="20" height="22" viewBox="0 0 14 16" fill="none" xmlns="http://www.w3.org/2000/svg">
<g clip-path="url(#clip0)">
<path d="M3.13437 15H0.23125V5.65312H3.13437V15ZM1.68125 4.37813C0.753123 4.37813 0 3.60938 0 2.68125C0 1.75313 0.753123 1 1.68125 1C2.60937 1 3.36249 1.75313 3.36249 2.68125C3.36249 3.60938 2.60937 4.37813 1.68125 4.37813ZM14 15H11.1031V10.45C11.1031 9.36562 11.0812 7.975 9.59373 7.975C8.08436 7.975 7.85311 9.15312 7.85311 10.3719V15H4.95311V5.65312H7.73748V6.92812H7.77811C8.16561 6.19375 9.11248 5.41875 10.525 5.41875C13.4625 5.41875 14.0031 7.35313 14.0031 9.86563V15H14Z" fill="#151515"/>
</g>
<defs>
<clipPath id="clip0">
<rect width="14" height="16" fill="white"/>
</clipPath>
</defs>
</svg>
