<svg width="22" height="22" viewBox="0 0 22 22" fill="none" xmlns="http://www.w3.org/2000/svg">
<path d="M16.1455 14.2223C17.4769 12.4055 18.0732 10.153 17.8152 7.91539C17.5571 5.67779 16.4637 3.62015 14.7537 2.15411C13.0437 0.688073 10.8432 -0.0782385 8.59241 0.00848706C6.34165 0.0952126 4.20664 1.02858 2.6145 2.62185C1.02237 4.21513 0.0905274 6.35081 0.00541242 8.60163C-0.0797026 10.8524 0.688183 13.0524 2.15544 14.7614C3.6227 16.4703 5.68113 17.5623 7.91891 17.8187C10.1567 18.0752 12.4088 17.4773 14.2246 16.1446H14.2233C14.2645 16.1996 14.3085 16.2518 14.358 16.3027L19.6518 21.5964C19.9096 21.8544 20.2593 21.9995 20.6241 21.9996C20.9888 21.9997 21.3387 21.8549 21.5967 21.5971C21.8547 21.3393 21.9997 20.9895 21.9998 20.6248C22 20.26 21.8552 19.9102 21.5974 19.6522L16.3036 14.3584C16.2545 14.3087 16.2016 14.2627 16.1455 14.2209V14.2223ZM16.5003 8.93681C16.5003 9.92993 16.3046 10.9133 15.9246 11.8308C15.5445 12.7484 14.9875 13.5821 14.2853 14.2843C13.583 14.9865 12.7493 15.5436 11.8318 15.9236C10.9143 16.3037 9.93088 16.4993 8.93776 16.4993C7.94464 16.4993 6.96124 16.3037 6.04371 15.9236C5.12619 15.5436 4.29251 14.9865 3.59026 14.2843C2.88802 13.5821 2.33097 12.7484 1.95092 11.8308C1.57087 10.9133 1.37526 9.92993 1.37526 8.93681C1.37526 6.93111 2.17202 5.00756 3.59026 3.58931C5.00851 2.17107 6.93206 1.37431 8.93776 1.37431C10.9435 1.37431 12.867 2.17107 14.2853 3.58931C15.7035 5.00756 16.5003 6.93111 16.5003 8.93681V8.93681Z" fill="#151515"/>
</svg>
